<svg width="24" height="24" viewBox="0 0 24 24" fill="none" xmlns="http://www.w3.org/2000/svg">
<path d="M15.9216 19.2561C16.3654 18.8123 16.3654 18.0927 15.9216 17.6489C15.4779 17.2052 14.7585 17.2051 14.3147 17.6486L13.5361 18.4265C12.6586 19.3033 11.2353 19.2989 10.3632 18.4166L9.50818 17.5514C9.08656 17.1249 8.39833 17.1228 7.97422 17.5469C7.55187 17.9693 7.55187 18.6541 7.97422 19.0764L9.69403 20.7962C10.9884 22.0906 13.0871 22.0906 14.3815 20.7962L15.9216 19.2561ZM16.6673 12.0978C15.7979 11.2284 14.3769 11.2398 13.5075 12.1092C12.6506 12.9661 11.25 12.9774 10.3931 12.1204C9.53621 11.2635 8.14687 11.2635 7.28996 12.1204L4.91103 14.4994C4.49298 14.9174 4.49298 15.5952 4.91103 16.0132C5.32907 16.4313 6.00685 16.4313 6.42489 16.0132L7.1944 15.2437C8.03742 14.4007 9.40424 14.4007 10.2473 15.2437L10.3089 15.3053C11.1859 16.1824 12.6198 16.1705 13.4969 15.2934C14.3788 14.4115 15.8206 14.3995 16.7026 15.2814L17.5123 16.0912C17.947 16.5259 18.6518 16.5259 19.0865 16.0912C19.5212 15.6565 19.5212 14.9517 19.0865 14.517L16.6673 12.0978ZM20.4746 12.9252C20.9662 13.4167 21.7632 13.4164 22.2544 12.9245C22.7451 12.4331 22.7449 11.637 22.2538 11.146L14.8913 3.78351C13.3292 2.22141 10.7966 2.22141 9.23447 3.78351L1.72618 11.2918C1.30186 11.7161 1.30186 12.4041 1.72618 12.8284C2.15046 13.2527 2.83834 13.2527 3.26268 12.8285L8.99306 7.09966C10.5552 5.53792 13.0876 5.53809 14.6495 7.10004L20.4746 12.9252Z" fill="#4361ee"/>
</svg>
